%TF.GenerationSoftware,Altium Limited,Altium Designer,23.7.1 (13)*%
G04 Layer_Color=16711935*
%FSLAX45Y45*%
%MOMM*%
%TF.SameCoordinates,4FC3C7EC-8D88-42E2-AD13-77C46488DAC4*%
%TF.FilePolarity,Positive*%
%TF.FileFunction,Keep-out,Top*%
%TF.Part,Single*%
G01*
G75*
%TA.AperFunction,NonConductor*%
%ADD33C,0.25400*%
G36*
X6650990Y3248660D02*
X6836410D01*
Y2974340D01*
X6650990D01*
Y3248660D01*
D02*
G37*
G36*
X7141210Y2974340D02*
X6955790D01*
Y3248660D01*
X7141210D01*
Y2974340D01*
D02*
G37*
G36*
X7700010Y2961640D02*
X7514590D01*
Y3235960D01*
X7700010D01*
Y2961640D01*
D02*
G37*
G36*
X7793990Y3235960D02*
X7979410D01*
Y2961640D01*
X7793990D01*
Y3235960D01*
D02*
G37*
D33*
X560221Y6863826D02*
G03*
X13472Y6317078I0J-546749D01*
G01*
X12020027Y6362700D02*
G03*
X11518900Y6863827I-501127J0D01*
G01*
X11518900Y19573D02*
G03*
X12020027Y520700I0J501127D01*
G01*
X19573D02*
G03*
X520700Y19573I501127J0D01*
G01*
X13472Y6317078D02*
X19573Y520700D01*
X560221Y6863826D02*
X11518900Y6863827D01*
X12020027Y6362700D02*
X12020027Y520700D01*
X520700Y19573D02*
X11518900D01*
%TF.MD5,6e2411a26b29bde88c3c0559e5e918ee*%
M02*
