%TF.GenerationSoftware,Altium Limited,Altium Designer,23.7.1 (13)*%
G04 Layer_Color=16711935*
%FSLAX45Y45*%
%MOMM*%
%TF.SameCoordinates,4FC3C7EC-8D88-42E2-AD13-77C46488DAC4*%
%TF.FilePolarity,Negative*%
%TF.FileFunction,Soldermask,Bot*%
%TF.Part,Single*%
G01*
G75*
%TA.AperFunction,WasherPad*%
%ADD39C,1.72720*%
%TA.AperFunction,ComponentPad*%
%ADD40R,1.30320X1.30320*%
%ADD41C,1.30320*%
%ADD42C,1.70320*%
%ADD43R,1.70320X1.70320*%
%ADD44R,1.18820X1.18820*%
%ADD45C,1.18820*%
%ADD46R,4.20320X1.70320*%
%ADD47R,3.70320X1.70320*%
%ADD48R,1.70320X3.70320*%
%ADD49R,1.18820X1.18820*%
D39*
X10414000Y5892800D02*
D03*
Y3873500D02*
D03*
X11569700Y342900D02*
D03*
X11633200Y6451600D02*
D03*
X431800Y368300D02*
D03*
X533400Y6400800D02*
D03*
D40*
X9486900Y533400D02*
D03*
X10160000Y520700D02*
D03*
D41*
X9613900Y533400D02*
D03*
X10033000Y520700D02*
D03*
D42*
X9664700Y1371600D02*
D03*
X9537700Y1879600D02*
D03*
X9410700Y1371600D02*
D03*
X9283700Y1879600D02*
D03*
X9156700Y1371600D02*
D03*
X9029700Y1879600D02*
D03*
X8902700Y1371600D02*
D03*
X8775700Y1879600D02*
D03*
X8648700Y1371600D02*
D03*
X8521700Y1879600D02*
D03*
X8394700Y1371600D02*
D03*
X8267700Y1879600D02*
D03*
X8140700Y1371600D02*
D03*
X8013700Y1879600D02*
D03*
D43*
X7886700Y1371600D02*
D03*
D44*
X3200400Y1422400D02*
D03*
X635000Y1473200D02*
D03*
X5753100Y5626100D02*
D03*
D45*
X3200400Y1676400D02*
D03*
Y1930400D02*
D03*
Y2184400D02*
D03*
Y2438400D02*
D03*
Y2692400D02*
D03*
Y2946400D02*
D03*
Y3200400D02*
D03*
Y3454400D02*
D03*
Y3708400D02*
D03*
Y3962400D02*
D03*
Y4216400D02*
D03*
Y4470400D02*
D03*
Y4724400D02*
D03*
Y4978400D02*
D03*
X635000Y1727200D02*
D03*
Y1981200D02*
D03*
Y2235200D02*
D03*
Y2489200D02*
D03*
Y2743200D02*
D03*
Y2997200D02*
D03*
Y3251200D02*
D03*
Y3505200D02*
D03*
Y3759200D02*
D03*
Y4013200D02*
D03*
Y4267200D02*
D03*
Y4521200D02*
D03*
Y4775200D02*
D03*
Y5029200D02*
D03*
X5346700Y3048000D02*
D03*
X5092700D02*
D03*
X4838700D02*
D03*
X5753100Y4356100D02*
D03*
Y4610100D02*
D03*
Y4864100D02*
D03*
Y5118100D02*
D03*
Y5372100D02*
D03*
D46*
X4635500Y5173700D02*
D03*
D47*
Y5773700D02*
D03*
D48*
X4165500Y5473700D02*
D03*
D49*
X4584700Y3048000D02*
D03*
%TF.MD5,dfbce25938f44cb424cbde4cb4afa5a4*%
M02*
