%TF.GenerationSoftware,Altium Limited,Altium Designer,23.7.1 (13)*%
G04 Layer_Physical_Order=2*
G04 Layer_Color=16711680*
%FSLAX45Y45*%
%MOMM*%
%TF.SameCoordinates,4FC3C7EC-8D88-42E2-AD13-77C46488DAC4*%
%TF.FilePolarity,Positive*%
%TF.FileFunction,Copper,L2,Bot,Signal*%
%TF.Part,Single*%
G01*
G75*
%TA.AperFunction,Conductor*%
%ADD14C,0.50000*%
%TA.AperFunction,WasherPad*%
%ADD17C,1.52400*%
%TA.AperFunction,ComponentPad*%
%ADD18R,1.10000X1.10000*%
%ADD19C,1.10000*%
%ADD20C,1.50000*%
%ADD21R,1.50000X1.50000*%
%ADD22R,0.98500X0.98500*%
%ADD23C,0.98500*%
%ADD24R,4.00000X1.50000*%
%ADD25R,3.50000X1.50000*%
%ADD26R,1.50000X3.50000*%
%ADD27R,0.98500X0.98500*%
%TA.AperFunction,ViaPad*%
%ADD28C,0.50000*%
G36*
X560221Y6799898D02*
X11518900Y6799899D01*
X11522289Y6800573D01*
X11576083Y6797047D01*
X11632287Y6785868D01*
X11686552Y6767447D01*
X11737948Y6742102D01*
X11785595Y6710264D01*
X11828680Y6672480D01*
X11866464Y6629396D01*
X11898302Y6581748D01*
X11923647Y6530352D01*
X11942067Y6476087D01*
X11953247Y6419883D01*
X11956773Y6366090D01*
X11956099Y6362700D01*
X11956099Y520700D01*
X11956773Y517310D01*
X11953247Y463517D01*
X11942068Y407313D01*
X11923647Y353048D01*
X11898302Y301652D01*
X11866464Y254004D01*
X11828680Y210920D01*
X11785596Y173136D01*
X11737948Y141298D01*
X11686552Y115953D01*
X11632287Y97532D01*
X11576083Y86353D01*
X11522290Y82827D01*
X11518900Y83501D01*
X520700D01*
X517310Y82827D01*
X463517Y86353D01*
X407313Y97532D01*
X353048Y115953D01*
X301652Y141298D01*
X254004Y173136D01*
X210920Y210920D01*
X173136Y254004D01*
X141298Y301652D01*
X115953Y353048D01*
X97532Y407313D01*
X86353Y463517D01*
X85819Y471660D01*
X83501Y520700D01*
Y520767D01*
X83448Y570684D01*
X77401Y6317145D01*
X76655Y6320872D01*
X80546Y6380228D01*
X92892Y6442298D01*
X113235Y6502226D01*
X141225Y6558985D01*
X176385Y6611605D01*
X218113Y6659186D01*
X265693Y6700913D01*
X318314Y6736073D01*
X375073Y6764064D01*
X435001Y6784407D01*
X497071Y6796753D01*
X556462Y6800646D01*
X560221Y6799898D01*
D02*
G37*
%LPC*%
G36*
X11652898Y6651600D02*
X11613502D01*
X11574862Y6643914D01*
X11538465Y6628838D01*
X11505707Y6606950D01*
X11477850Y6579093D01*
X11455962Y6546335D01*
X11440886Y6509938D01*
X11433200Y6471298D01*
Y6431902D01*
X11440886Y6393262D01*
X11455962Y6356865D01*
X11477850Y6324107D01*
X11505707Y6296250D01*
X11538465Y6274362D01*
X11574862Y6259286D01*
X11613502Y6251600D01*
X11652898D01*
X11691538Y6259286D01*
X11727935Y6274362D01*
X11760693Y6296250D01*
X11788550Y6324107D01*
X11810438Y6356865D01*
X11825514Y6393262D01*
X11833200Y6431902D01*
Y6471298D01*
X11825514Y6509938D01*
X11810438Y6546335D01*
X11788550Y6579093D01*
X11760693Y6606950D01*
X11727935Y6628838D01*
X11691538Y6643914D01*
X11652898Y6651600D01*
D02*
G37*
G36*
X553098Y6600800D02*
X513702D01*
X475062Y6593114D01*
X438665Y6578038D01*
X405907Y6556150D01*
X378050Y6528293D01*
X356162Y6495535D01*
X341086Y6459138D01*
X333400Y6420498D01*
Y6381102D01*
X341086Y6342462D01*
X356162Y6306065D01*
X378050Y6273307D01*
X405907Y6245450D01*
X438665Y6223562D01*
X475062Y6208486D01*
X513702Y6200800D01*
X553098D01*
X591738Y6208486D01*
X628135Y6223562D01*
X660893Y6245450D01*
X688750Y6273307D01*
X710638Y6306065D01*
X725714Y6342462D01*
X733400Y6381102D01*
Y6420498D01*
X725714Y6459138D01*
X710638Y6495535D01*
X688750Y6528293D01*
X660893Y6556150D01*
X628135Y6578038D01*
X591738Y6593114D01*
X553098Y6600800D01*
D02*
G37*
G36*
X10433698Y6092800D02*
X10394302D01*
X10355662Y6085114D01*
X10319265Y6070038D01*
X10286507Y6048150D01*
X10258650Y6020293D01*
X10236762Y5987535D01*
X10221686Y5951138D01*
X10214000Y5912498D01*
Y5873102D01*
X10221686Y5834462D01*
X10236762Y5798065D01*
X10258650Y5765307D01*
X10286507Y5737450D01*
X10319265Y5715562D01*
X10355662Y5700486D01*
X10394302Y5692800D01*
X10433698D01*
X10472338Y5700486D01*
X10508735Y5715562D01*
X10541493Y5737450D01*
X10569350Y5765307D01*
X10591238Y5798065D01*
X10606314Y5834462D01*
X10614000Y5873102D01*
Y5912498D01*
X10606314Y5951138D01*
X10591238Y5987535D01*
X10569350Y6020293D01*
X10541493Y6048150D01*
X10508735Y6070038D01*
X10472338Y6085114D01*
X10433698Y6092800D01*
D02*
G37*
G36*
X1638300Y6501847D02*
X1618721Y6499269D01*
X1600476Y6491712D01*
X1584809Y6479691D01*
X1584809Y6479690D01*
X1013309Y5908191D01*
X1001288Y5892524D01*
X993731Y5874279D01*
X991153Y5854700D01*
Y3358734D01*
X959266Y3326847D01*
X699713D01*
X695941Y3330620D01*
X673309Y3343686D01*
X648067Y3350450D01*
X621933D01*
X596691Y3343686D01*
X574059Y3330620D01*
X555580Y3312141D01*
X542514Y3289509D01*
X535750Y3264267D01*
Y3238133D01*
X542514Y3212891D01*
X555580Y3190259D01*
X574059Y3171780D01*
X596691Y3158714D01*
X621933Y3151950D01*
X648067D01*
X673309Y3158714D01*
X695941Y3171780D01*
X699713Y3175553D01*
X990600D01*
X1010179Y3178131D01*
X1028424Y3185688D01*
X1044091Y3197709D01*
X1120291Y3273909D01*
X1132312Y3289576D01*
X1139869Y3307821D01*
X1142447Y3327400D01*
Y5823366D01*
X1669634Y6350553D01*
X5924966D01*
X6033053Y6242466D01*
Y5251034D01*
X5975766Y5193747D01*
X5817813D01*
X5814041Y5197520D01*
X5791409Y5210586D01*
X5766167Y5217350D01*
X5740033D01*
X5714791Y5210586D01*
X5700947Y5202593D01*
X5670545Y5212990D01*
X5650947Y5227018D01*
Y5478053D01*
X5653851Y5526850D01*
X5700947Y5526850D01*
X5852350D01*
Y5725350D01*
X5700947D01*
X5653851Y5725350D01*
X5650947Y5774147D01*
Y6045200D01*
X5648369Y6064779D01*
X5640812Y6083024D01*
X5628791Y6098691D01*
X5514491Y6212991D01*
X5498824Y6225012D01*
X5480579Y6232569D01*
X5461000Y6235147D01*
X2133600D01*
X2114021Y6232569D01*
X2095776Y6225012D01*
X2080109Y6212991D01*
X1851509Y5984391D01*
X1839488Y5968724D01*
X1831931Y5950479D01*
X1829353Y5930900D01*
Y3650834D01*
X1251366Y3072847D01*
X699713D01*
X695941Y3076620D01*
X673309Y3089686D01*
X648067Y3096450D01*
X621933D01*
X596691Y3089686D01*
X574059Y3076620D01*
X555580Y3058141D01*
X542514Y3035509D01*
X535750Y3010267D01*
Y2984133D01*
X542514Y2958891D01*
X555580Y2936259D01*
X574059Y2917780D01*
X596691Y2904714D01*
X621933Y2897950D01*
X648067D01*
X673309Y2904714D01*
X695941Y2917780D01*
X699713Y2921553D01*
X1282700D01*
X1302279Y2924131D01*
X1320524Y2931688D01*
X1336191Y2943709D01*
X1958491Y3566009D01*
X1970512Y3581676D01*
X1978069Y3599921D01*
X1980647Y3619500D01*
Y5899566D01*
X2164934Y6083853D01*
X5429666D01*
X5499653Y6013866D01*
Y5041900D01*
X5502231Y5022321D01*
X5509788Y5004076D01*
X5521809Y4988409D01*
X5653850Y4856369D01*
Y4851033D01*
X5660614Y4825791D01*
X5673680Y4803159D01*
X5692159Y4784680D01*
X5714791Y4771614D01*
X5740033Y4764850D01*
X5766167D01*
X5791409Y4771614D01*
X5814041Y4784680D01*
X5832520Y4803159D01*
X5845586Y4825791D01*
X5852350Y4851033D01*
Y4877167D01*
X5845586Y4902409D01*
X5832520Y4925041D01*
X5814041Y4943520D01*
X5791409Y4956586D01*
X5786840Y4957810D01*
X5781364Y4973369D01*
X5791409Y5025614D01*
X5814041Y5038680D01*
X5817813Y5042453D01*
X6007100D01*
X6026679Y5045031D01*
X6044924Y5052588D01*
X6060591Y5064609D01*
X6162190Y5166209D01*
X6162191Y5166209D01*
X6174212Y5181876D01*
X6181769Y5200121D01*
X6184347Y5219700D01*
Y6273800D01*
X6181769Y6293379D01*
X6174212Y6311624D01*
X6162191Y6327291D01*
X6009791Y6479691D01*
X5994124Y6491712D01*
X5975879Y6499269D01*
X5956300Y6501847D01*
X1638302D01*
X1638300Y6501847D01*
D02*
G37*
G36*
X648067Y5128450D02*
X621933D01*
X596691Y5121686D01*
X574059Y5108620D01*
X555580Y5090141D01*
X542514Y5067509D01*
X535750Y5042267D01*
Y5016133D01*
X542514Y4990891D01*
X555580Y4968259D01*
X574059Y4949780D01*
X596691Y4936714D01*
X621933Y4929950D01*
X648067D01*
X673309Y4936714D01*
X695941Y4949780D01*
X714420Y4968259D01*
X727486Y4990891D01*
X734250Y5016133D01*
Y5042267D01*
X727486Y5067509D01*
X714420Y5090141D01*
X695941Y5108620D01*
X673309Y5121686D01*
X648067Y5128450D01*
D02*
G37*
G36*
X3213467Y5077650D02*
X3187333D01*
X3162091Y5070886D01*
X3139459Y5057820D01*
X3120980Y5039341D01*
X3107914Y5016709D01*
X3101150Y4991467D01*
Y4965333D01*
X3107914Y4940091D01*
X3120980Y4917459D01*
X3139459Y4898980D01*
X3162091Y4885914D01*
X3187333Y4879150D01*
X3213467D01*
X3238709Y4885914D01*
X3261341Y4898980D01*
X3279820Y4917459D01*
X3292886Y4940091D01*
X3299650Y4965333D01*
Y4991467D01*
X3292886Y5016709D01*
X3279820Y5039341D01*
X3261341Y5057820D01*
X3238709Y5070886D01*
X3213467Y5077650D01*
D02*
G37*
G36*
X5766167Y4709350D02*
X5740033D01*
X5714791Y4702586D01*
X5692159Y4689520D01*
X5673680Y4671041D01*
X5660614Y4648409D01*
X5653850Y4623167D01*
Y4597033D01*
X5660614Y4571791D01*
X5673680Y4549159D01*
X5692159Y4530680D01*
X5714791Y4517614D01*
X5740033Y4510850D01*
X5766167D01*
X5791409Y4517614D01*
X5814041Y4530680D01*
X5832520Y4549159D01*
X5845586Y4571791D01*
X5852350Y4597033D01*
Y4623167D01*
X5845586Y4648409D01*
X5832520Y4671041D01*
X5814041Y4689520D01*
X5791409Y4702586D01*
X5766167Y4709350D01*
D02*
G37*
G36*
X648067Y4620450D02*
X621933D01*
X596691Y4613686D01*
X574059Y4600620D01*
X555580Y4582141D01*
X542514Y4559509D01*
X535750Y4534267D01*
Y4508133D01*
X542514Y4482891D01*
X555580Y4460259D01*
X574059Y4441780D01*
X596691Y4428714D01*
X621933Y4421950D01*
X648067D01*
X673309Y4428714D01*
X695941Y4441780D01*
X714420Y4460259D01*
X727486Y4482891D01*
X734250Y4508133D01*
Y4534267D01*
X727486Y4559509D01*
X714420Y4582141D01*
X695941Y4600620D01*
X673309Y4613686D01*
X648067Y4620450D01*
D02*
G37*
G36*
X3213467Y4569650D02*
X3187333D01*
X3162091Y4562886D01*
X3139459Y4549820D01*
X3120980Y4531341D01*
X3107914Y4508709D01*
X3101150Y4483467D01*
Y4457333D01*
X3107914Y4432091D01*
X3120980Y4409459D01*
X3139459Y4390980D01*
X3162091Y4377914D01*
X3187333Y4371150D01*
X3213467D01*
X3238709Y4377914D01*
X3261341Y4390980D01*
X3279820Y4409459D01*
X3292886Y4432091D01*
X3299650Y4457333D01*
Y4483467D01*
X3292886Y4508709D01*
X3279820Y4531341D01*
X3261341Y4549820D01*
X3238709Y4562886D01*
X3213467Y4569650D01*
D02*
G37*
G36*
X5766167Y4455350D02*
X5740033D01*
X5714791Y4448586D01*
X5692159Y4435520D01*
X5673680Y4417041D01*
X5660614Y4394409D01*
X5653850Y4369167D01*
Y4343033D01*
X5660614Y4317791D01*
X5673680Y4295159D01*
X5692159Y4276680D01*
X5714791Y4263614D01*
X5740033Y4256850D01*
X5766167D01*
X5791409Y4263614D01*
X5814041Y4276680D01*
X5832520Y4295159D01*
X5845586Y4317791D01*
X5852350Y4343033D01*
Y4369167D01*
X5845586Y4394409D01*
X5832520Y4417041D01*
X5814041Y4435520D01*
X5791409Y4448586D01*
X5766167Y4455350D01*
D02*
G37*
G36*
X648067Y4366450D02*
X621933D01*
X596691Y4359686D01*
X574059Y4346620D01*
X555580Y4328141D01*
X542514Y4305509D01*
X535750Y4280267D01*
Y4254133D01*
X542514Y4228891D01*
X555580Y4206259D01*
X574059Y4187780D01*
X596691Y4174714D01*
X621933Y4167950D01*
X648067D01*
X673309Y4174714D01*
X695941Y4187780D01*
X714420Y4206259D01*
X727486Y4228891D01*
X734250Y4254133D01*
Y4280267D01*
X727486Y4305509D01*
X714420Y4328141D01*
X695941Y4346620D01*
X673309Y4359686D01*
X648067Y4366450D01*
D02*
G37*
G36*
X3213467Y4315650D02*
X3187333D01*
X3162091Y4308886D01*
X3139459Y4295820D01*
X3120980Y4277341D01*
X3107914Y4254709D01*
X3101150Y4229467D01*
Y4203333D01*
X3107914Y4178091D01*
X3120980Y4155459D01*
X3139459Y4136980D01*
X3162091Y4123914D01*
X3187333Y4117150D01*
X3213467D01*
X3238709Y4123914D01*
X3261341Y4136980D01*
X3279820Y4155459D01*
X3292886Y4178091D01*
X3299650Y4203333D01*
Y4229467D01*
X3292886Y4254709D01*
X3279820Y4277341D01*
X3261341Y4295820D01*
X3238709Y4308886D01*
X3213467Y4315650D01*
D02*
G37*
G36*
X648067Y4112450D02*
X621933D01*
X596691Y4105686D01*
X574059Y4092620D01*
X555580Y4074141D01*
X542514Y4051509D01*
X535750Y4026267D01*
Y4000133D01*
X542514Y3974891D01*
X555580Y3952259D01*
X574059Y3933780D01*
X596691Y3920714D01*
X621933Y3913950D01*
X648067D01*
X673309Y3920714D01*
X695941Y3933780D01*
X714420Y3952259D01*
X727486Y3974891D01*
X734250Y4000133D01*
Y4026267D01*
X727486Y4051509D01*
X714420Y4074141D01*
X695941Y4092620D01*
X673309Y4105686D01*
X648067Y4112450D01*
D02*
G37*
G36*
X3213467Y4061650D02*
X3187333D01*
X3162091Y4054886D01*
X3139459Y4041820D01*
X3120980Y4023341D01*
X3107914Y4000709D01*
X3101150Y3975467D01*
Y3949333D01*
X3107914Y3924091D01*
X3120980Y3901459D01*
X3139459Y3882980D01*
X3162091Y3869914D01*
X3187333Y3863150D01*
X3213467D01*
X3238709Y3869914D01*
X3261341Y3882980D01*
X3279820Y3901459D01*
X3292886Y3924091D01*
X3299650Y3949333D01*
Y3975467D01*
X3292886Y4000709D01*
X3279820Y4023341D01*
X3261341Y4041820D01*
X3238709Y4054886D01*
X3213467Y4061650D01*
D02*
G37*
G36*
X10433698Y4073500D02*
X10394302D01*
X10355662Y4065814D01*
X10319265Y4050738D01*
X10286507Y4028850D01*
X10258650Y4000993D01*
X10236762Y3968235D01*
X10221686Y3931838D01*
X10214000Y3893198D01*
Y3853802D01*
X10221686Y3815162D01*
X10236762Y3778765D01*
X10258650Y3746007D01*
X10286507Y3718150D01*
X10319265Y3696262D01*
X10355662Y3681186D01*
X10394302Y3673500D01*
X10433698D01*
X10472338Y3681186D01*
X10508735Y3696262D01*
X10541493Y3718150D01*
X10569350Y3746007D01*
X10591238Y3778765D01*
X10606314Y3815162D01*
X10614000Y3853802D01*
Y3893198D01*
X10606314Y3931838D01*
X10591238Y3968235D01*
X10569350Y4000993D01*
X10541493Y4028850D01*
X10508735Y4050738D01*
X10472338Y4065814D01*
X10433698Y4073500D01*
D02*
G37*
G36*
X648067Y3858450D02*
X621933D01*
X596691Y3851686D01*
X574059Y3838620D01*
X555580Y3820141D01*
X542514Y3797509D01*
X535750Y3772267D01*
Y3746133D01*
X542514Y3720891D01*
X555580Y3698259D01*
X574059Y3679780D01*
X596691Y3666714D01*
X621933Y3659950D01*
X648067D01*
X673309Y3666714D01*
X695941Y3679780D01*
X714420Y3698259D01*
X727486Y3720891D01*
X734250Y3746133D01*
Y3772267D01*
X727486Y3797509D01*
X714420Y3820141D01*
X695941Y3838620D01*
X673309Y3851686D01*
X648067Y3858450D01*
D02*
G37*
G36*
X3213467Y3807650D02*
X3187333D01*
X3162091Y3800886D01*
X3139459Y3787820D01*
X3120980Y3769341D01*
X3107914Y3746709D01*
X3101150Y3721467D01*
Y3695333D01*
X3107914Y3670091D01*
X3120980Y3647459D01*
X3139459Y3628980D01*
X3162091Y3615914D01*
X3187333Y3609150D01*
X3213467D01*
X3238709Y3615914D01*
X3261341Y3628980D01*
X3279820Y3647459D01*
X3292886Y3670091D01*
X3299650Y3695333D01*
Y3721467D01*
X3292886Y3746709D01*
X3279820Y3769341D01*
X3261341Y3787820D01*
X3238709Y3800886D01*
X3213467Y3807650D01*
D02*
G37*
G36*
X648067Y3604450D02*
X621933D01*
X596691Y3597686D01*
X574059Y3584620D01*
X555580Y3566141D01*
X542514Y3543509D01*
X535750Y3518267D01*
Y3492133D01*
X542514Y3466891D01*
X555580Y3444259D01*
X574059Y3425780D01*
X596691Y3412714D01*
X621933Y3405950D01*
X648067D01*
X673309Y3412714D01*
X695941Y3425780D01*
X714420Y3444259D01*
X727486Y3466891D01*
X734250Y3492133D01*
Y3518267D01*
X727486Y3543509D01*
X714420Y3566141D01*
X695941Y3584620D01*
X673309Y3597686D01*
X648067Y3604450D01*
D02*
G37*
G36*
X3213467Y3553650D02*
X3187333D01*
X3162091Y3546886D01*
X3139459Y3533820D01*
X3120980Y3515341D01*
X3107914Y3492709D01*
X3101150Y3467467D01*
Y3441333D01*
X3107914Y3416091D01*
X3120980Y3393459D01*
X3139459Y3374980D01*
X3162091Y3361914D01*
X3187333Y3355150D01*
X3213467D01*
X3238709Y3361914D01*
X3261341Y3374980D01*
X3279820Y3393459D01*
X3292886Y3416091D01*
X3299650Y3441333D01*
Y3467467D01*
X3292886Y3492709D01*
X3279820Y3515341D01*
X3261341Y3533820D01*
X3238709Y3546886D01*
X3213467Y3553650D01*
D02*
G37*
G36*
X7141210Y3299640D02*
X6955790D01*
X6936281Y3295759D01*
X6926429Y3289176D01*
X6917300Y3284708D01*
X6874900D01*
X6865771Y3289176D01*
X6855919Y3295759D01*
X6836410Y3299640D01*
X6650990D01*
X6631481Y3295759D01*
X6614942Y3284708D01*
X6603891Y3268169D01*
X6600010Y3248660D01*
Y2974340D01*
X6603891Y2954831D01*
X6614942Y2938292D01*
X6631481Y2927241D01*
X6650990Y2923360D01*
X6836410D01*
X6855919Y2927241D01*
X6865771Y2933824D01*
X6874900Y2938292D01*
X6917300D01*
X6926429Y2933824D01*
X6936281Y2927241D01*
X6955790Y2923360D01*
X7141210D01*
X7160719Y2927241D01*
X7177258Y2938292D01*
X7188309Y2954831D01*
X7192190Y2974340D01*
Y3248660D01*
X7188309Y3268169D01*
X7177258Y3284708D01*
X7160719Y3295759D01*
X7141210Y3299640D01*
D02*
G37*
G36*
X7979410Y3286940D02*
X7793990D01*
X7774481Y3283059D01*
X7757942Y3272008D01*
X7736058D01*
X7719519Y3283059D01*
X7700010Y3286940D01*
X7514590D01*
X7495081Y3283059D01*
X7478542Y3272008D01*
X7467491Y3255469D01*
X7463610Y3235960D01*
Y2961640D01*
X7467491Y2942131D01*
X7478542Y2925592D01*
X7495081Y2914541D01*
X7514590Y2910660D01*
X7700010D01*
X7719519Y2914541D01*
X7736058Y2925592D01*
X7757942D01*
X7774481Y2914541D01*
X7793990Y2910660D01*
X7979410D01*
X7998919Y2914541D01*
X8015458Y2925592D01*
X8026509Y2942131D01*
X8030390Y2961640D01*
Y3235960D01*
X8026509Y3255469D01*
X8015458Y3272008D01*
X7998919Y3283059D01*
X7979410Y3286940D01*
D02*
G37*
G36*
X3213467Y3299650D02*
X3187333D01*
X3162091Y3292886D01*
X3139459Y3279820D01*
X3120980Y3261341D01*
X3107914Y3238709D01*
X3101150Y3213467D01*
Y3187333D01*
X3107914Y3162091D01*
X3120980Y3139459D01*
X3139459Y3120980D01*
X3162091Y3107914D01*
X3187333Y3101150D01*
X3213467D01*
X3238709Y3107914D01*
X3261341Y3120980D01*
X3279820Y3139459D01*
X3292886Y3162091D01*
X3299650Y3187333D01*
Y3213467D01*
X3292886Y3238709D01*
X3279820Y3261341D01*
X3261341Y3279820D01*
X3238709Y3292886D01*
X3213467Y3299650D01*
D02*
G37*
G36*
X4683950Y3147250D02*
X4485450D01*
Y2948750D01*
X4683950D01*
Y3147250D01*
D02*
G37*
G36*
X648067Y2842450D02*
X621933D01*
X596691Y2835686D01*
X574059Y2822620D01*
X555580Y2804141D01*
X542514Y2781509D01*
X535750Y2756267D01*
Y2730133D01*
X542514Y2704891D01*
X555580Y2682259D01*
X574059Y2663780D01*
X596691Y2650714D01*
X621933Y2643950D01*
X648067D01*
X673309Y2650714D01*
X695941Y2663780D01*
X714420Y2682259D01*
X727486Y2704891D01*
X734250Y2730133D01*
Y2756267D01*
X727486Y2781509D01*
X714420Y2804141D01*
X695941Y2822620D01*
X673309Y2835686D01*
X648067Y2842450D01*
D02*
G37*
G36*
X3213467Y2791650D02*
X3187333D01*
X3162091Y2784886D01*
X3139459Y2771820D01*
X3120980Y2753341D01*
X3107914Y2730709D01*
X3101150Y2705467D01*
Y2679333D01*
X3107914Y2654091D01*
X3120980Y2631459D01*
X3139459Y2612980D01*
X3162091Y2599914D01*
X3187333Y2593150D01*
X3213467D01*
X3238709Y2599914D01*
X3261341Y2612980D01*
X3279820Y2631459D01*
X3292886Y2654091D01*
X3299650Y2679333D01*
Y2705467D01*
X3292886Y2730709D01*
X3279820Y2753341D01*
X3261341Y2771820D01*
X3238709Y2784886D01*
X3213467Y2791650D01*
D02*
G37*
G36*
X4885500Y5298700D02*
X4385500D01*
Y5265057D01*
X4385201Y5264609D01*
X4381320Y5245100D01*
Y5105400D01*
X4385201Y5085891D01*
X4385500Y5085443D01*
Y5048700D01*
X4885500D01*
Y5054420D01*
X5058883D01*
X5092520Y5020784D01*
Y3797300D01*
X5096401Y3777791D01*
X5107452Y3761252D01*
X5158252Y3710452D01*
X5174791Y3699401D01*
X5194300Y3695520D01*
X5744684D01*
X5867220Y3572984D01*
Y2730500D01*
X5871101Y2710991D01*
X5882152Y2694452D01*
X6012557Y2564047D01*
X5991846Y2514047D01*
X5784434D01*
X5676347Y2622134D01*
Y3390900D01*
X5673769Y3410479D01*
X5666212Y3428724D01*
X5654191Y3444391D01*
X5476391Y3622191D01*
X5460724Y3634212D01*
X5442479Y3641769D01*
X5422900Y3644347D01*
X3763090D01*
X3743511Y3641769D01*
X3725266Y3634212D01*
X3709599Y3622191D01*
X3680309Y3592901D01*
X3668288Y3577234D01*
X3660731Y3558989D01*
X3658153Y3539410D01*
Y3117434D01*
X3562766Y3022047D01*
X3265113D01*
X3261341Y3025820D01*
X3238709Y3038886D01*
X3213467Y3045650D01*
X3187333D01*
X3162091Y3038886D01*
X3139459Y3025820D01*
X3120980Y3007341D01*
X3107914Y2984709D01*
X3101150Y2959467D01*
Y2933333D01*
X3107914Y2908091D01*
X3120980Y2885459D01*
X3139459Y2866980D01*
X3162091Y2853914D01*
X3187333Y2847150D01*
X3213467D01*
X3238709Y2853914D01*
X3261341Y2866980D01*
X3265113Y2870753D01*
X3594100D01*
X3613679Y2873331D01*
X3631924Y2880888D01*
X3647591Y2892909D01*
X3787290Y3032609D01*
X3787291Y3032609D01*
X3799312Y3048276D01*
X3806869Y3066521D01*
X3809447Y3086100D01*
Y3493053D01*
X4090839D01*
X4101880Y3445834D01*
X4101517Y3443053D01*
X4086709Y3431691D01*
X3921609Y3266591D01*
X3909588Y3250924D01*
X3902031Y3232679D01*
X3899453Y3213100D01*
Y2736434D01*
X3677066Y2514047D01*
X3265113D01*
X3261341Y2517820D01*
X3238709Y2530886D01*
X3213467Y2537650D01*
X3187333D01*
X3162091Y2530886D01*
X3139459Y2517820D01*
X3120980Y2499341D01*
X3107914Y2476709D01*
X3101150Y2451467D01*
Y2425333D01*
X3107914Y2400091D01*
X3120980Y2377459D01*
X3139459Y2358980D01*
X3162091Y2345914D01*
X3187333Y2339150D01*
X3213467D01*
X3238709Y2345914D01*
X3261341Y2358980D01*
X3265113Y2362753D01*
X3708400D01*
X3727979Y2365331D01*
X3746224Y2372888D01*
X3761891Y2384909D01*
X4028590Y2651609D01*
X4028591Y2651609D01*
X4040612Y2667276D01*
X4048169Y2685521D01*
X4050747Y2705100D01*
Y3181766D01*
X4171534Y3302553D01*
X5162966D01*
X5271053Y3194466D01*
Y3112713D01*
X5267280Y3108941D01*
X5254214Y3086309D01*
X5247450Y3061067D01*
Y3034933D01*
X5254214Y3009691D01*
X5267280Y2987059D01*
X5285759Y2968580D01*
X5308391Y2955514D01*
X5333633Y2948750D01*
X5359767D01*
X5385009Y2955514D01*
X5407641Y2968580D01*
X5426120Y2987059D01*
X5439186Y3009691D01*
X5445950Y3034933D01*
Y3061067D01*
X5439186Y3086309D01*
X5426120Y3108941D01*
X5422347Y3112713D01*
Y3225800D01*
X5419769Y3245379D01*
X5412212Y3263624D01*
X5400191Y3279291D01*
X5247791Y3431691D01*
X5232983Y3443053D01*
X5232620Y3445834D01*
X5243661Y3493053D01*
X5391566D01*
X5525053Y3359566D01*
Y2590800D01*
X5527631Y2571221D01*
X5535188Y2552976D01*
X5547209Y2537309D01*
X5699609Y2384909D01*
X5715276Y2372888D01*
X5733521Y2365331D01*
X5753100Y2362753D01*
X8439566D01*
X8446053Y2356266D01*
Y1980262D01*
X8444948Y1979625D01*
X8424075Y1958751D01*
X8420255Y1956352D01*
X8369145D01*
X8365325Y1958751D01*
X8344452Y1979625D01*
X8315948Y1996081D01*
X8284157Y2004600D01*
X8251243D01*
X8219452Y1996081D01*
X8190948Y1979625D01*
X8170075Y1958751D01*
X8166255Y1956352D01*
X8115145D01*
X8111325Y1958751D01*
X8090452Y1979625D01*
X8061948Y1996081D01*
X8030157Y2004600D01*
X7997243D01*
X7965452Y1996081D01*
X7936948Y1979625D01*
X7913675Y1956352D01*
X7913038Y1955247D01*
X7759700D01*
X7740121Y1952669D01*
X7721876Y1945112D01*
X7706209Y1933091D01*
X7591909Y1818791D01*
X7579888Y1803124D01*
X7572331Y1784879D01*
X7569753Y1765300D01*
Y1003300D01*
X7572331Y983721D01*
X7579888Y965476D01*
X7591909Y949809D01*
X7820509Y721209D01*
X7836176Y709188D01*
X7854421Y701631D01*
X7874000Y699053D01*
X9353966D01*
X9369681Y683338D01*
X9381900Y638400D01*
X9381900D01*
Y428400D01*
X9591899D01*
Y428399D01*
X9627723Y428400D01*
X9654428Y435556D01*
X9678371Y449379D01*
X9697921Y468929D01*
X9711744Y492872D01*
X9718900Y519577D01*
Y547223D01*
X9711744Y573928D01*
X9697921Y597871D01*
X9689547Y606245D01*
Y736600D01*
X9686969Y756179D01*
X9679412Y774424D01*
X9667391Y790091D01*
X9564055Y893426D01*
X9583189Y939620D01*
X10761184D01*
X10911352Y789452D01*
X10927891Y778401D01*
X10947400Y774520D01*
X11239500D01*
X11259009Y778401D01*
X11275548Y789452D01*
X11300948Y814852D01*
X11311999Y831391D01*
X11315879Y850900D01*
X11315880Y1079500D01*
X11311999Y1099009D01*
X11300948Y1115548D01*
X11199348Y1217148D01*
X11191193Y1222597D01*
X11183096Y1228079D01*
X11182941Y1228111D01*
X11182809Y1228199D01*
X11173190Y1230112D01*
X11163611Y1232079D01*
X9781095Y1240509D01*
X9760511Y1290635D01*
X9764725Y1294848D01*
X9781181Y1323352D01*
X9789700Y1355143D01*
Y1388057D01*
X9781181Y1419848D01*
X9764725Y1448352D01*
X9741452Y1471625D01*
X9712948Y1488081D01*
X9681157Y1496600D01*
X9648243D01*
X9616452Y1488081D01*
X9587948Y1471625D01*
X9567075Y1450751D01*
X9563255Y1448352D01*
X9512145D01*
X9508325Y1450751D01*
X9487452Y1471625D01*
X9458948Y1488081D01*
X9427157Y1496600D01*
X9394243D01*
X9362452Y1488081D01*
X9333948Y1471625D01*
X9313075Y1450751D01*
X9309255Y1448352D01*
X9258145D01*
X9254325Y1450751D01*
X9233452Y1471625D01*
X9204948Y1488081D01*
X9173157Y1496600D01*
X9140243D01*
X9108452Y1488081D01*
X9079948Y1471625D01*
X9059075Y1450751D01*
X9055255Y1448352D01*
X9004145D01*
X9000325Y1450751D01*
X8979452Y1471625D01*
X8950948Y1488081D01*
X8919157Y1496600D01*
X8886243D01*
X8854452Y1488081D01*
X8825948Y1471625D01*
X8805075Y1450751D01*
X8801255Y1448352D01*
X8750145D01*
X8746325Y1450751D01*
X8725452Y1471625D01*
X8696948Y1488081D01*
X8665157Y1496600D01*
X8632243D01*
X8600452Y1488081D01*
X8571948Y1471625D01*
X8551075Y1450751D01*
X8547255Y1448352D01*
X8496145D01*
X8492325Y1450751D01*
X8471452Y1471625D01*
X8442948Y1488081D01*
X8436580Y1489788D01*
X8420504Y1544423D01*
X8476834Y1600753D01*
X9791700D01*
X9811279Y1603331D01*
X9829524Y1610888D01*
X9845191Y1622909D01*
X10035691Y1813409D01*
X10047712Y1829076D01*
X10055269Y1847321D01*
X10057847Y1866900D01*
Y3263900D01*
X10055269Y3283479D01*
X10047712Y3301724D01*
X10035691Y3317391D01*
X10035690Y3317391D01*
X9857891Y3495191D01*
X9842224Y3507212D01*
X9823979Y3514769D01*
X9804400Y3517347D01*
X7886700D01*
X7881784Y3516700D01*
X7876826D01*
X7872037Y3515417D01*
X7867121Y3514769D01*
X7862541Y3512872D01*
X7857751Y3511589D01*
X7853456Y3509109D01*
X7848876Y3507212D01*
X7844943Y3504194D01*
X7840649Y3501715D01*
X7837144Y3498209D01*
X7833209Y3495191D01*
X7830191Y3491256D01*
X7826685Y3487751D01*
X7824206Y3483457D01*
X7821188Y3479524D01*
X7819291Y3474944D01*
X7816811Y3470649D01*
X7815528Y3465859D01*
X7813631Y3461279D01*
X7812983Y3456363D01*
X7811700Y3451574D01*
Y3446616D01*
X7811053Y3441700D01*
X7811700Y3436784D01*
Y3431826D01*
X7812983Y3427037D01*
X7813631Y3422121D01*
X7815528Y3417541D01*
X7816811Y3412751D01*
X7819291Y3408456D01*
X7821188Y3403876D01*
X7824206Y3399943D01*
X7826685Y3395649D01*
X7830191Y3392144D01*
X7833209Y3388209D01*
X7837144Y3385191D01*
X7840649Y3381685D01*
X7844943Y3379206D01*
X7848876Y3376188D01*
X7853456Y3374291D01*
X7857751Y3371811D01*
X7862541Y3370528D01*
X7867121Y3368631D01*
X7872037Y3367983D01*
X7876826Y3366700D01*
X7881784D01*
X7886700Y3366053D01*
X9773066D01*
X9906553Y3232566D01*
Y1898234D01*
X9760366Y1752047D01*
X9657634D01*
X9636923Y1802047D01*
X9637725Y1802848D01*
X9654181Y1831352D01*
X9662700Y1863143D01*
Y1896057D01*
X9654181Y1927848D01*
X9637725Y1956352D01*
X9614452Y1979625D01*
X9585948Y1996081D01*
X9554157Y2004600D01*
X9521243D01*
X9489452Y1996081D01*
X9460948Y1979625D01*
X9440075Y1958751D01*
X9436255Y1956352D01*
X9385145D01*
X9381325Y1958751D01*
X9360452Y1979625D01*
X9331948Y1996081D01*
X9300157Y2004600D01*
X9267243D01*
X9235452Y1996081D01*
X9206948Y1979625D01*
X9186075Y1958751D01*
X9182255Y1956352D01*
X9131145D01*
X9127325Y1958751D01*
X9106452Y1979625D01*
X9077948Y1996081D01*
X9046157Y2004600D01*
X9013243D01*
X8981452Y1996081D01*
X8952948Y1979625D01*
X8929675Y1956352D01*
X8913219Y1927848D01*
X8904700Y1896057D01*
Y1863143D01*
X8913219Y1831352D01*
X8929675Y1802848D01*
X8930477Y1802047D01*
X8909766Y1752047D01*
X8641634D01*
X8620923Y1802047D01*
X8621725Y1802848D01*
X8638181Y1831352D01*
X8646700Y1863143D01*
Y1896057D01*
X8638181Y1927848D01*
X8621725Y1956352D01*
X8598452Y1979625D01*
X8597347Y1980262D01*
Y2387598D01*
X8597347Y2387600D01*
X8594769Y2407179D01*
X8587212Y2425424D01*
X8575191Y2441091D01*
X8575190Y2441091D01*
X8524391Y2491891D01*
X8508724Y2503912D01*
X8490479Y2511469D01*
X8470900Y2514047D01*
X7190754D01*
X7170043Y2564047D01*
X7173448Y2567452D01*
X7184499Y2583991D01*
X7188380Y2603500D01*
Y2616020D01*
X7607300D01*
X7626809Y2619901D01*
X7643348Y2630952D01*
X7668748Y2656352D01*
X7679799Y2672891D01*
X7683680Y2692399D01*
Y2730500D01*
X7679799Y2750009D01*
X7668748Y2766548D01*
X7643348Y2791948D01*
X7626809Y2802999D01*
X7607300Y2806880D01*
X7180443D01*
X7173448Y2817348D01*
X7135348Y2855448D01*
X7118809Y2866499D01*
X7099300Y2870380D01*
X6388280D01*
Y3708400D01*
X6384399Y3727909D01*
X6373348Y3744448D01*
X6157448Y3960348D01*
X6140909Y3971399D01*
X6121400Y3975280D01*
X5456717D01*
X5397680Y4034316D01*
X5397679Y5092700D01*
X5393799Y5112209D01*
X5382748Y5128748D01*
X5230348Y5281148D01*
X5213809Y5292199D01*
X5194300Y5296080D01*
X4885500D01*
Y5298700D01*
D02*
G37*
G36*
X648067Y2588450D02*
X621933D01*
X596691Y2581686D01*
X574059Y2568620D01*
X555580Y2550141D01*
X542514Y2527509D01*
X535750Y2502267D01*
Y2476133D01*
X542514Y2450891D01*
X555580Y2428259D01*
X574059Y2409780D01*
X596691Y2396714D01*
X621933Y2389950D01*
X648067D01*
X673309Y2396714D01*
X695941Y2409780D01*
X714420Y2428259D01*
X727486Y2450891D01*
X734250Y2476133D01*
Y2502267D01*
X727486Y2527509D01*
X714420Y2550141D01*
X695941Y2568620D01*
X673309Y2581686D01*
X648067Y2588450D01*
D02*
G37*
G36*
Y2334450D02*
X621933D01*
X596691Y2327686D01*
X574059Y2314620D01*
X555580Y2296141D01*
X542514Y2273509D01*
X535750Y2248267D01*
Y2222133D01*
X542514Y2196891D01*
X555580Y2174259D01*
X574059Y2155780D01*
X596691Y2142714D01*
X621933Y2135950D01*
X648067D01*
X673309Y2142714D01*
X695941Y2155780D01*
X714420Y2174259D01*
X727486Y2196891D01*
X734250Y2222133D01*
Y2248267D01*
X727486Y2273509D01*
X714420Y2296141D01*
X695941Y2314620D01*
X673309Y2327686D01*
X648067Y2334450D01*
D02*
G37*
G36*
X3213467Y2283650D02*
X3187333D01*
X3162091Y2276886D01*
X3139459Y2263820D01*
X3120980Y2245341D01*
X3107914Y2222709D01*
X3101150Y2197467D01*
Y2171333D01*
X3107914Y2146091D01*
X3120980Y2123459D01*
X3139459Y2104980D01*
X3162091Y2091914D01*
X3187333Y2085150D01*
X3213467D01*
X3238709Y2091914D01*
X3261341Y2104980D01*
X3279820Y2123459D01*
X3292886Y2146091D01*
X3299650Y2171333D01*
Y2197467D01*
X3292886Y2222709D01*
X3279820Y2245341D01*
X3261341Y2263820D01*
X3238709Y2276886D01*
X3213467Y2283650D01*
D02*
G37*
G36*
X648067Y2080450D02*
X621933D01*
X596691Y2073686D01*
X574059Y2060620D01*
X555580Y2042141D01*
X542514Y2019509D01*
X535750Y1994267D01*
Y1968133D01*
X542514Y1942891D01*
X555580Y1920259D01*
X574059Y1901780D01*
X596691Y1888714D01*
X621933Y1881950D01*
X648067D01*
X673309Y1888714D01*
X695941Y1901780D01*
X714420Y1920259D01*
X727486Y1942891D01*
X734250Y1968133D01*
Y1994267D01*
X727486Y2019509D01*
X714420Y2042141D01*
X695941Y2060620D01*
X673309Y2073686D01*
X648067Y2080450D01*
D02*
G37*
G36*
X3213467Y2029650D02*
X3187333D01*
X3162091Y2022886D01*
X3139459Y2009820D01*
X3120980Y1991341D01*
X3107914Y1968709D01*
X3101150Y1943467D01*
Y1917333D01*
X3107914Y1892091D01*
X3120980Y1869459D01*
X3139459Y1850980D01*
X3162091Y1837914D01*
X3187333Y1831150D01*
X3213467D01*
X3238709Y1837914D01*
X3261341Y1850980D01*
X3279820Y1869459D01*
X3292886Y1892091D01*
X3299650Y1917333D01*
Y1943467D01*
X3292886Y1968709D01*
X3279820Y1991341D01*
X3261341Y2009820D01*
X3238709Y2022886D01*
X3213467Y2029650D01*
D02*
G37*
G36*
X5105767Y3147250D02*
X5079633D01*
X5054391Y3140486D01*
X5031759Y3127420D01*
X5013280Y3108941D01*
X5000214Y3086309D01*
X4993450Y3061067D01*
Y3034933D01*
X5000214Y3009691D01*
X5013280Y2987059D01*
X5017053Y2983287D01*
Y1999834D01*
X4769266Y1752047D01*
X3265113D01*
X3261341Y1755820D01*
X3238709Y1768886D01*
X3213467Y1775650D01*
X3187333D01*
X3162091Y1768886D01*
X3139459Y1755820D01*
X3120980Y1737341D01*
X3107914Y1714709D01*
X3101150Y1689467D01*
Y1663333D01*
X3107914Y1638091D01*
X3120980Y1615459D01*
X3139459Y1596980D01*
X3162091Y1583914D01*
X3187333Y1577150D01*
X3213467D01*
X3238709Y1583914D01*
X3261341Y1596980D01*
X3265113Y1600753D01*
X4800600D01*
X4820179Y1603331D01*
X4838424Y1610888D01*
X4854091Y1622909D01*
X5146190Y1915009D01*
X5146191Y1915009D01*
X5158212Y1930676D01*
X5165769Y1948921D01*
X5168347Y1968500D01*
X5168347Y1968502D01*
Y2983287D01*
X5172120Y2987059D01*
X5185186Y3009691D01*
X5191950Y3034933D01*
Y3061067D01*
X5185186Y3086309D01*
X5172120Y3108941D01*
X5153641Y3127420D01*
X5131009Y3140486D01*
X5105767Y3147250D01*
D02*
G37*
G36*
X648067Y1826450D02*
X621933D01*
X596691Y1819686D01*
X574059Y1806620D01*
X555580Y1788141D01*
X542514Y1765509D01*
X535750Y1740267D01*
Y1714133D01*
X542514Y1688891D01*
X555580Y1666259D01*
X574059Y1647780D01*
X596691Y1634714D01*
X621933Y1627950D01*
X648067D01*
X673309Y1634714D01*
X695941Y1647780D01*
X714420Y1666259D01*
X727486Y1688891D01*
X734250Y1714133D01*
Y1740267D01*
X727486Y1765509D01*
X714420Y1788141D01*
X695941Y1806620D01*
X673309Y1819686D01*
X648067Y1826450D01*
D02*
G37*
G36*
X734250Y1572450D02*
X535750D01*
Y1373950D01*
X734250D01*
Y1572450D01*
D02*
G37*
G36*
X3299650Y1521650D02*
X3101150D01*
Y1323150D01*
X3299650D01*
Y1521650D01*
D02*
G37*
G36*
X2832100Y1498047D02*
X2827184Y1497400D01*
X2822226D01*
X2817437Y1496117D01*
X2812521Y1495469D01*
X2807941Y1493572D01*
X2803151Y1492289D01*
X2798856Y1489809D01*
X2794276Y1487912D01*
X2790343Y1484894D01*
X2786049Y1482415D01*
X2782544Y1478909D01*
X2778609Y1475891D01*
X2775591Y1471956D01*
X2772085Y1468451D01*
X2769606Y1464157D01*
X2766588Y1460224D01*
X2764691Y1455644D01*
X2762211Y1451349D01*
X2760928Y1446559D01*
X2759031Y1441979D01*
X2758383Y1437063D01*
X2757100Y1432274D01*
Y1427316D01*
X2756453Y1422400D01*
Y863600D01*
X2757100Y858684D01*
Y853726D01*
X2758383Y848937D01*
X2759031Y844021D01*
X2760928Y839441D01*
X2762211Y834651D01*
X2764691Y830356D01*
X2766588Y825776D01*
X2769606Y821843D01*
X2772085Y817549D01*
X2775591Y814044D01*
X2778609Y810109D01*
X2782544Y807091D01*
X2786049Y803585D01*
X2790343Y801106D01*
X2794276Y798088D01*
X2798856Y796191D01*
X2803151Y793711D01*
X2807941Y792428D01*
X2812521Y790531D01*
X2817437Y789883D01*
X2822226Y788600D01*
X2827184D01*
X2832100Y787953D01*
X2837016Y788600D01*
X2841974D01*
X2846763Y789883D01*
X2851679Y790531D01*
X2856259Y792428D01*
X2861049Y793711D01*
X2865344Y796191D01*
X2869924Y798088D01*
X2873857Y801106D01*
X2878151Y803585D01*
X2881656Y807091D01*
X2885591Y810109D01*
X2888609Y814044D01*
X2892115Y817549D01*
X2894594Y821843D01*
X2897612Y825776D01*
X2899509Y830356D01*
X2901989Y834651D01*
X2903272Y839441D01*
X2905169Y844021D01*
X2905817Y848937D01*
X2907100Y853726D01*
Y858684D01*
X2907747Y863600D01*
Y1422400D01*
X2907100Y1427316D01*
Y1432274D01*
X2905817Y1437063D01*
X2905169Y1441979D01*
X2903272Y1446559D01*
X2901989Y1451349D01*
X2899509Y1455644D01*
X2897612Y1460224D01*
X2894594Y1464157D01*
X2892115Y1468451D01*
X2888609Y1471956D01*
X2885591Y1475891D01*
X2881656Y1478909D01*
X2878151Y1482415D01*
X2873857Y1484894D01*
X2869924Y1487912D01*
X2865344Y1489809D01*
X2861049Y1492289D01*
X2856259Y1493572D01*
X2851679Y1495469D01*
X2846763Y1496117D01*
X2841974Y1497400D01*
X2837016D01*
X2832100Y1498047D01*
D02*
G37*
G36*
X10265000Y625700D02*
X10055000D01*
Y415700D01*
X10265000D01*
Y625700D01*
D02*
G37*
G36*
X451498Y568300D02*
X412102D01*
X373462Y560614D01*
X337065Y545538D01*
X304307Y523650D01*
X276450Y495793D01*
X254562Y463035D01*
X239486Y426638D01*
X231800Y387998D01*
Y348602D01*
X239486Y309962D01*
X254562Y273565D01*
X276450Y240807D01*
X304307Y212950D01*
X337065Y191062D01*
X373462Y175986D01*
X412102Y168300D01*
X451498D01*
X490138Y175986D01*
X526535Y191062D01*
X559293Y212950D01*
X587150Y240807D01*
X609038Y273565D01*
X624114Y309962D01*
X631800Y348602D01*
Y387998D01*
X624114Y426638D01*
X609038Y463035D01*
X587150Y495793D01*
X559293Y523650D01*
X526535Y545538D01*
X490138Y560614D01*
X451498Y568300D01*
D02*
G37*
G36*
X11589398Y542900D02*
X11550002D01*
X11511362Y535214D01*
X11474965Y520138D01*
X11442207Y498250D01*
X11414350Y470393D01*
X11392462Y437635D01*
X11377386Y401238D01*
X11369700Y362598D01*
Y323202D01*
X11377386Y284562D01*
X11392462Y248165D01*
X11414350Y215407D01*
X11442207Y187550D01*
X11474965Y165662D01*
X11511362Y150586D01*
X11550002Y142900D01*
X11589398D01*
X11628038Y150586D01*
X11664435Y165662D01*
X11697193Y187550D01*
X11725050Y215407D01*
X11746938Y248165D01*
X11762014Y284562D01*
X11769700Y323202D01*
Y362598D01*
X11762014Y401238D01*
X11746938Y437635D01*
X11725050Y470393D01*
X11697193Y498250D01*
X11664435Y520138D01*
X11628038Y535214D01*
X11589398Y542900D01*
D02*
G37*
%LPD*%
G36*
X5346700Y5092700D02*
X5346700Y4013200D01*
X5435600Y3924300D01*
X6121400D01*
X6337300Y3708400D01*
Y2819400D01*
X7099300D01*
X7137400Y2781300D01*
Y2755900D01*
X7607300D01*
X7632700Y2730500D01*
Y2692400D01*
X7607300Y2667000D01*
X7137400D01*
Y2603500D01*
X7112000Y2578100D01*
X6070600D01*
X5918200Y2730500D01*
Y3594100D01*
X5765800Y3746500D01*
X5194300D01*
X5143500Y3797300D01*
Y5041900D01*
X5080000Y5105400D01*
X4432300D01*
Y5245100D01*
X5194300D01*
X5346700Y5092700D01*
D02*
G37*
G36*
X7913675Y1802848D02*
X7936948Y1779575D01*
X7965452Y1763119D01*
X7997243Y1754600D01*
X8030157D01*
X8061948Y1763119D01*
X8090452Y1779575D01*
X8111325Y1800449D01*
X8115145Y1802848D01*
X8166255D01*
X8170075Y1800449D01*
X8190948Y1779575D01*
X8219452Y1763119D01*
X8251243Y1754600D01*
X8284157D01*
X8315948Y1763119D01*
X8344451Y1779575D01*
X8396529Y1770976D01*
X8407676Y1741912D01*
X8392009Y1729891D01*
X8392009Y1729890D01*
X8158389Y1496270D01*
X8157157Y1496600D01*
X8124243D01*
X8092452Y1488081D01*
X8063948Y1471625D01*
X8040675Y1448352D01*
X8024219Y1419848D01*
X8015700Y1388057D01*
Y1355143D01*
X8024219Y1323352D01*
X8040675Y1294848D01*
X8063948Y1271575D01*
X8065053Y1270938D01*
Y1079500D01*
X8067631Y1059921D01*
X8075188Y1041676D01*
X8087209Y1026009D01*
X8216678Y896541D01*
X8197543Y850347D01*
X7905334D01*
X7721047Y1034634D01*
Y1733966D01*
X7791034Y1803953D01*
X7913038D01*
X7913675Y1802848D01*
D02*
G37*
G36*
X11163300Y1181100D02*
X11264900Y1079500D01*
X11264900Y850900D01*
X11239500Y825500D01*
X10947400D01*
X10782300Y990600D01*
X9105900D01*
X9042400Y1054100D01*
Y1155700D01*
X9080500Y1193800D01*
X11163300Y1181100D01*
D02*
G37*
D14*
X1638300Y6426200D02*
X5956300D01*
X1066800Y5854700D02*
X1638300Y6426200D01*
X5956300D02*
X6108700Y6273800D01*
X1905000Y3619500D02*
Y5930900D01*
X2133600Y6159500D02*
X5461000D01*
X1905000Y5930900D02*
X2133600Y6159500D01*
X6108700Y5219700D02*
Y6273800D01*
X5753100Y5118100D02*
X6007100D01*
X6108700Y5219700D01*
X5575300Y5041900D02*
X5753100Y4864100D01*
X5575300Y5041900D02*
Y6045200D01*
X5461000Y6159500D02*
X5575300Y6045200D01*
X1282700Y2997200D02*
X1905000Y3619500D01*
X635000Y2997200D02*
X1282700D01*
X1066800Y3327400D02*
Y5854700D01*
X990600Y3251200D02*
X1066800Y3327400D01*
X635000Y3251200D02*
X990600D01*
X5600700Y2590800D02*
X5753100Y2438400D01*
X5600700Y2590800D02*
Y3390900D01*
X5753100Y2438400D02*
X8470900D01*
X8521700Y2387600D01*
X9613900Y533400D02*
Y736600D01*
X8331200Y889000D02*
X9461500D01*
X9613900Y736600D01*
X8140700Y1079500D02*
X8331200Y889000D01*
X9486900Y533400D02*
Y673100D01*
X7874000Y774700D02*
X9385300D01*
X9486900Y673100D01*
X7645400Y1003300D02*
X7874000Y774700D01*
X7886700Y3441700D02*
X9804400D01*
X9982200Y1866900D02*
Y3263900D01*
X9804400Y3441700D02*
X9982200Y3263900D01*
X9791700Y1676400D02*
X9982200Y1866900D01*
X8140700Y1371600D02*
X8445500Y1676400D01*
X9791700D01*
X2832100Y863600D02*
Y1422400D01*
X3763090Y3568700D02*
X5422900D01*
X5600700Y3390900D01*
X3733800Y3539410D02*
X3763090Y3568700D01*
X3733800Y3086100D02*
Y3539410D01*
X8521700Y1879600D02*
Y2387600D01*
X3594100Y2946400D02*
X3733800Y3086100D01*
X3200400Y2946400D02*
X3594100D01*
X3975100Y3213100D02*
X4140200Y3378200D01*
X5194300D01*
X3975100Y2705100D02*
Y3213100D01*
X3708400Y2438400D02*
X3975100Y2705100D01*
X3200400Y2438400D02*
X3708400D01*
X5092700Y1968500D02*
Y3048000D01*
X4800600Y1676400D02*
X5092700Y1968500D01*
X3200400Y1676400D02*
X4800600D01*
X5346700Y3048000D02*
Y3225800D01*
X5194300Y3378200D02*
X5346700Y3225800D01*
X7645400Y1003300D02*
Y1765300D01*
X7759700Y1879600D01*
X8013700D01*
X8140700Y1079500D02*
Y1371600D01*
D17*
X10414000Y5892800D02*
D03*
Y3873500D02*
D03*
X11569700Y342900D02*
D03*
X11633200Y6451600D02*
D03*
X431800Y368300D02*
D03*
X533400Y6400800D02*
D03*
D18*
X9486900Y533400D02*
D03*
X10160000Y520700D02*
D03*
D19*
X9613900Y533400D02*
D03*
X10033000Y520700D02*
D03*
D20*
X9664700Y1371600D02*
D03*
X9537700Y1879600D02*
D03*
X9410700Y1371600D02*
D03*
X9283700Y1879600D02*
D03*
X9156700Y1371600D02*
D03*
X9029700Y1879600D02*
D03*
X8902700Y1371600D02*
D03*
X8775700Y1879600D02*
D03*
X8648700Y1371600D02*
D03*
X8521700Y1879600D02*
D03*
X8394700Y1371600D02*
D03*
X8267700Y1879600D02*
D03*
X8140700Y1371600D02*
D03*
X8013700Y1879600D02*
D03*
D21*
X7886700Y1371600D02*
D03*
D22*
X3200400Y1422400D02*
D03*
X635000Y1473200D02*
D03*
X5753100Y5626100D02*
D03*
D23*
X3200400Y1676400D02*
D03*
Y1930400D02*
D03*
Y2184400D02*
D03*
Y2438400D02*
D03*
Y2692400D02*
D03*
Y2946400D02*
D03*
Y3200400D02*
D03*
Y3454400D02*
D03*
Y3708400D02*
D03*
Y3962400D02*
D03*
Y4216400D02*
D03*
Y4470400D02*
D03*
Y4724400D02*
D03*
Y4978400D02*
D03*
X635000Y1727200D02*
D03*
Y1981200D02*
D03*
Y2235200D02*
D03*
Y2489200D02*
D03*
Y2743200D02*
D03*
Y2997200D02*
D03*
Y3251200D02*
D03*
Y3505200D02*
D03*
Y3759200D02*
D03*
Y4013200D02*
D03*
Y4267200D02*
D03*
Y4521200D02*
D03*
Y4775200D02*
D03*
Y5029200D02*
D03*
X5346700Y3048000D02*
D03*
X5092700D02*
D03*
X4838700D02*
D03*
X5753100Y4356100D02*
D03*
Y4610100D02*
D03*
Y4864100D02*
D03*
Y5118100D02*
D03*
Y5372100D02*
D03*
D24*
X4635500Y5173700D02*
D03*
D25*
Y5773700D02*
D03*
D26*
X4165500Y5473700D02*
D03*
D27*
X4584700Y3048000D02*
D03*
D28*
X7061200Y2692400D02*
D03*
X7607300Y2717800D02*
D03*
X11201400Y939800D02*
D03*
Y1066800D02*
D03*
X11099800Y939800D02*
D03*
Y1066800D02*
D03*
X9080500D02*
D03*
Y1143000D02*
D03*
X9156700Y1104900D02*
D03*
Y1028700D02*
D03*
X7886700Y3441700D02*
D03*
X2832100Y1422400D02*
D03*
Y863600D02*
D03*
%TF.MD5,b994e1d5376501f14d7ecc413c179784*%
M02*
