%TF.GenerationSoftware,Altium Limited,Altium Designer,23.7.1 (13)*%
G04 Layer_Color=32768*
%FSLAX45Y45*%
%MOMM*%
%TF.SameCoordinates,4FC3C7EC-8D88-42E2-AD13-77C46488DAC4*%
%TF.FilePolarity,Positive*%
%TF.FileFunction,Other,Top_Courtyard*%
%TF.Part,Single*%
G01*
G75*
%TA.AperFunction,NonConductor*%
%ADD29C,0.20000*%
%ADD32C,0.15240*%
%ADD50C,0.10000*%
%ADD53C,0.05000*%
G36*
X6673850Y3266440D02*
Y3329940D01*
X6813550D01*
Y3266440D01*
X6851650D01*
Y2956560D01*
X6813550D01*
Y2893060D01*
X6673850D01*
Y2956560D01*
X6635750D01*
Y3266440D01*
X6673850D01*
D02*
G37*
G36*
X7118350Y2956560D02*
Y2893060D01*
X6978650D01*
Y2956560D01*
X6940550D01*
Y3266440D01*
X6978650D01*
Y3329940D01*
X7118350D01*
Y3266440D01*
X7156450D01*
Y2956560D01*
X7118350D01*
D02*
G37*
G36*
X7677150Y2943860D02*
Y2880360D01*
X7537450D01*
Y2943860D01*
X7499350D01*
Y3253740D01*
X7537450D01*
Y3317240D01*
X7677150D01*
Y3253740D01*
X7715250D01*
Y2943860D01*
X7677150D01*
D02*
G37*
G36*
X7816850Y3253740D02*
Y3317240D01*
X7956550D01*
Y3253740D01*
X7994650D01*
Y2943860D01*
X7956550D01*
Y2880360D01*
X7816850D01*
Y2943860D01*
X7778750D01*
Y3253740D01*
X7816850D01*
D02*
G37*
D29*
X6611200Y1223400D02*
Y2383400D01*
X7511200D01*
Y1223400D02*
Y2383400D01*
X6611200Y1223400D02*
X7511200D01*
X10040200D02*
Y2383400D01*
X10940200D01*
Y1223400D02*
Y2383400D01*
X10040200Y1223400D02*
X10940200D01*
D32*
X7816850Y3317240D02*
X7956550D01*
Y3253740D02*
Y3317240D01*
Y2880360D02*
Y2943860D01*
X7816850Y2880360D02*
X7956550D01*
X7816850D02*
Y2943860D01*
Y3253740D02*
Y3317240D01*
X7778750Y3253740D02*
X7816850D01*
X7956550D02*
X7994650D01*
Y2943860D02*
Y3253740D01*
X7956550Y2943860D02*
X7994650D01*
X7778750D02*
X7816850D01*
X7778750D02*
Y3253740D01*
X7537450Y2880360D02*
X7677150D01*
X7537450D02*
Y2943860D01*
Y3253740D02*
Y3317240D01*
X7677150D01*
Y3253740D02*
Y3317240D01*
Y2880360D02*
Y2943860D01*
X7715250D01*
X7499350D02*
X7537450D01*
X7499350D02*
Y3253740D01*
X7537450D01*
X7677150D02*
X7715250D01*
Y2943860D02*
Y3253740D01*
X6673850Y3329940D02*
X6813550D01*
Y3266440D02*
Y3329940D01*
Y2893060D02*
Y2956560D01*
X6673850Y2893060D02*
X6813550D01*
X6673850D02*
Y2956560D01*
Y3266440D02*
Y3329940D01*
X6635750Y3266440D02*
X6673850D01*
X6813550D02*
X6851650D01*
Y2956560D02*
Y3266440D01*
X6813550Y2956560D02*
X6851650D01*
X6635750D02*
X6673850D01*
X6635750D02*
Y3266440D01*
X7156450Y2956560D02*
Y3266440D01*
X7118350D02*
X7156450D01*
X6940550D02*
X6978650D01*
X6940550Y2956560D02*
Y3266440D01*
Y2956560D02*
X6978650D01*
X7118350D02*
X7156450D01*
X7118350Y2893060D02*
Y2956560D01*
Y3266440D02*
Y3329940D01*
X6978650D02*
X7118350D01*
X6978650Y3266440D02*
Y3329940D01*
Y2893060D02*
Y2956560D01*
Y2893060D02*
X7118350D01*
D50*
X8725700Y1625600D02*
X8825700D01*
X8775700Y1575600D02*
Y1675600D01*
X4635500Y5423700D02*
Y5523700D01*
X4585500Y5473700D02*
X4685500D01*
X8979700Y495300D02*
X9079700D01*
X9029700Y445300D02*
Y545300D01*
X7379500Y495300D02*
X7479500D01*
X7429500Y445300D02*
Y545300D01*
D53*
X9398400Y401400D02*
Y665400D01*
X9702400D01*
Y401400D02*
Y665400D01*
X9398400Y401400D02*
X9702400D01*
X9810700Y1271600D02*
Y2359600D01*
X7740700Y1271600D02*
Y2359600D01*
X9810700D01*
X7740700Y1271600D02*
X9810700D01*
X8180100Y600300D02*
X8660100D01*
Y390300D02*
Y600300D01*
X8180100Y390300D02*
X8660100D01*
X8180100D02*
Y600300D01*
X10248500Y388700D02*
Y652700D01*
X9944500Y388700D02*
X10248500D01*
X9944500D02*
Y652700D01*
X10248500D01*
X3048400Y1270400D02*
X3352400D01*
X3048400D02*
Y5130400D01*
X3352400D01*
Y1270400D02*
Y5130400D01*
X483000Y1321200D02*
X787000D01*
X483000D02*
Y5181200D01*
X787000D01*
Y1321200D02*
Y5181200D01*
X4080500Y5088700D02*
X5095500D01*
X4080500D02*
Y6553700D01*
X5095500Y5088700D02*
Y6553700D01*
X4080500D02*
X5095500D01*
X4432700Y2896000D02*
X5498700D01*
Y3200000D01*
X4432700D02*
X5498700D01*
X4432700Y2896000D02*
Y3200000D01*
X5601100Y4204100D02*
Y5778100D01*
Y4204100D02*
X5905100D01*
Y5778100D01*
X5601100D02*
X5905100D01*
X6605300Y390300D02*
Y600300D01*
Y390300D02*
X7085300D01*
Y600300D01*
X6605300D02*
X7085300D01*
X8839700Y400300D02*
Y590300D01*
X9219700Y400300D02*
Y590300D01*
X8839700D02*
X9219700D01*
X8839700Y400300D02*
X9219700D01*
X7239500D02*
Y590300D01*
X7619500Y400300D02*
Y590300D01*
X7239500D02*
X7619500D01*
X7239500Y400300D02*
X7619500D01*
%TF.MD5,043665932117a65efcd92b6ada28c3c8*%
M02*
