%TF.GenerationSoftware,Altium Limited,Altium Designer,23.7.1 (13)*%
G04 Layer_Color=32896*
%FSLAX45Y45*%
%MOMM*%
%TF.SameCoordinates,4FC3C7EC-8D88-42E2-AD13-77C46488DAC4*%
%TF.FilePolarity,Positive*%
%TF.FileFunction,Legend,Bot*%
%TF.Part,Single*%
G01*
G75*
%TA.AperFunction,NonConductor*%
%ADD33C,0.25400*%
D33*
X3572912Y1710239D02*
X3589839Y1727167D01*
X3623695D01*
X3640623Y1710239D01*
Y1693311D01*
X3623695Y1676383D01*
X3589839D01*
X3572912Y1659456D01*
Y1642528D01*
X3589839Y1625600D01*
X3623695D01*
X3640623Y1642528D01*
X3471344Y1710239D02*
X3488272Y1727167D01*
X3522128D01*
X3539056Y1710239D01*
Y1642528D01*
X3522128Y1625600D01*
X3488272D01*
X3471344Y1642528D01*
X3437488Y1727167D02*
Y1625600D01*
X3369777D01*
X3585612Y2484939D02*
X3602539Y2501867D01*
X3636395D01*
X3653323Y2484939D01*
Y2468011D01*
X3636395Y2451083D01*
X3602539D01*
X3585612Y2434156D01*
Y2417228D01*
X3602539Y2400300D01*
X3636395D01*
X3653323Y2417228D01*
X3551756Y2501867D02*
Y2400300D01*
X3500972D01*
X3484044Y2417228D01*
Y2484939D01*
X3500972Y2501867D01*
X3551756D01*
X3450188Y2400300D02*
Y2468011D01*
X3416333Y2501867D01*
X3382477Y2468011D01*
Y2400300D01*
Y2451083D01*
X3450188D01*
X3687195Y3014095D02*
X3754906D01*
Y2912528D01*
X3687195D01*
X3754906Y2963311D02*
X3721051D01*
X3653339Y2912528D02*
Y2980239D01*
X3602556D01*
X3585628Y2963311D01*
Y2912528D01*
X3551772Y2895600D02*
X3484061D01*
X3450205Y2912528D02*
Y2980239D01*
X3416349Y3014095D01*
X3382493Y2980239D01*
Y2912528D01*
Y2963311D01*
X3450205D01*
%TF.MD5,03991ccb4d3e27ee368fa199f32babf9*%
M02*
