%TF.GenerationSoftware,Altium Limited,Altium Designer,23.7.1 (13)*%
G04 Layer_Color=2752767*
%FSLAX45Y45*%
%MOMM*%
%TF.SameCoordinates,4FC3C7EC-8D88-42E2-AD13-77C46488DAC4*%
%TF.FilePolarity,Positive*%
%TF.FileFunction,Drawing*%
%TF.Part,Single*%
G01*
G75*
%TA.AperFunction,NonConductor*%
%ADD31C,0.12700*%
%ADD70C,0.16933*%
D31*
X10363200Y5892800D02*
X10414000Y5943600D01*
X10464800Y5892800D01*
X10414000Y5842000D01*
X10363200Y5892800D01*
X9613900Y1320800D02*
Y1422400D01*
X9715500D01*
Y1320800D01*
X9613900D01*
X9486900Y1828800D02*
Y1930400D01*
X9588500D01*
Y1828800D01*
X9486900D01*
X9359900Y1320800D02*
Y1422400D01*
X9461500D01*
Y1320800D01*
X9359900D01*
X9232900Y1828800D02*
Y1930400D01*
X9334500D01*
Y1828800D01*
X9232900D01*
X9105900Y1320800D02*
Y1422400D01*
X9207500D01*
Y1320800D01*
X9105900D01*
X8978900Y1828800D02*
Y1930400D01*
X9080500D01*
Y1828800D01*
X8978900D01*
X8851900Y1320800D02*
Y1422400D01*
X8953500D01*
Y1320800D01*
X8851900D01*
X8724900Y1828800D02*
Y1930400D01*
X8826500D01*
Y1828800D01*
X8724900D01*
X8597900Y1320800D02*
Y1422400D01*
X8699500D01*
Y1320800D01*
X8597900D01*
X8470900Y1828800D02*
Y1930400D01*
X8572500D01*
Y1828800D01*
X8470900D01*
X8343900Y1320800D02*
Y1422400D01*
X8445500D01*
Y1320800D01*
X8343900D01*
X8216900Y1828800D02*
Y1930400D01*
X8318500D01*
Y1828800D01*
X8216900D01*
X8089900Y1320800D02*
Y1422400D01*
X8191500D01*
Y1320800D01*
X8089900D01*
X7962900Y1828800D02*
Y1930400D01*
X8064500D01*
Y1828800D01*
X7962900D01*
X7835900Y1320800D02*
Y1422400D01*
X7937500D01*
Y1320800D01*
X7835900D01*
X10363200Y3873500D02*
X10414000Y3924300D01*
X10464800Y3873500D01*
X10414000Y3822700D01*
X10363200Y3873500D01*
X11518900Y342900D02*
X11569700Y393700D01*
X11620500Y342900D01*
X11569700Y292100D01*
X11518900Y342900D01*
X11582400Y6451600D02*
X11633200Y6502400D01*
X11684000Y6451600D01*
X11633200Y6400800D01*
X11582400Y6451600D01*
X381000Y368300D02*
X431800Y419100D01*
X482600Y368300D01*
X431800Y317500D01*
X381000Y368300D01*
X482600Y6400800D02*
X533400Y6451600D01*
X584200Y6400800D01*
X533400Y6350000D01*
X482600Y6400800D01*
X3149600Y1371600D02*
X3175000Y1422400D01*
X3149600Y1473200D01*
X3200400Y1447800D01*
X3251200Y1473200D01*
X3225800Y1422400D01*
X3251200Y1371600D01*
X3200400Y1397000D01*
X3149600Y1371600D01*
Y1625600D02*
X3175000Y1676400D01*
X3149600Y1727200D01*
X3200400Y1701800D01*
X3251200Y1727200D01*
X3225800Y1676400D01*
X3251200Y1625600D01*
X3200400Y1651000D01*
X3149600Y1625600D01*
Y1879600D02*
X3175000Y1930400D01*
X3149600Y1981200D01*
X3200400Y1955800D01*
X3251200Y1981200D01*
X3225800Y1930400D01*
X3251200Y1879600D01*
X3200400Y1905000D01*
X3149600Y1879600D01*
Y2133600D02*
X3175000Y2184400D01*
X3149600Y2235200D01*
X3200400Y2209800D01*
X3251200Y2235200D01*
X3225800Y2184400D01*
X3251200Y2133600D01*
X3200400Y2159000D01*
X3149600Y2133600D01*
Y2387600D02*
X3175000Y2438400D01*
X3149600Y2489200D01*
X3200400Y2463800D01*
X3251200Y2489200D01*
X3225800Y2438400D01*
X3251200Y2387600D01*
X3200400Y2413000D01*
X3149600Y2387600D01*
Y2641600D02*
X3175000Y2692400D01*
X3149600Y2743200D01*
X3200400Y2717800D01*
X3251200Y2743200D01*
X3225800Y2692400D01*
X3251200Y2641600D01*
X3200400Y2667000D01*
X3149600Y2641600D01*
Y2895600D02*
X3175000Y2946400D01*
X3149600Y2997200D01*
X3200400Y2971800D01*
X3251200Y2997200D01*
X3225800Y2946400D01*
X3251200Y2895600D01*
X3200400Y2921000D01*
X3149600Y2895600D01*
Y3149600D02*
X3175000Y3200400D01*
X3149600Y3251200D01*
X3200400Y3225800D01*
X3251200Y3251200D01*
X3225800Y3200400D01*
X3251200Y3149600D01*
X3200400Y3175000D01*
X3149600Y3149600D01*
Y3403600D02*
X3175000Y3454400D01*
X3149600Y3505200D01*
X3200400Y3479800D01*
X3251200Y3505200D01*
X3225800Y3454400D01*
X3251200Y3403600D01*
X3200400Y3429000D01*
X3149600Y3403600D01*
Y3657600D02*
X3175000Y3708400D01*
X3149600Y3759200D01*
X3200400Y3733800D01*
X3251200Y3759200D01*
X3225800Y3708400D01*
X3251200Y3657600D01*
X3200400Y3683000D01*
X3149600Y3657600D01*
Y3911600D02*
X3175000Y3962400D01*
X3149600Y4013200D01*
X3200400Y3987800D01*
X3251200Y4013200D01*
X3225800Y3962400D01*
X3251200Y3911600D01*
X3200400Y3937000D01*
X3149600Y3911600D01*
Y4165600D02*
X3175000Y4216400D01*
X3149600Y4267200D01*
X3200400Y4241800D01*
X3251200Y4267200D01*
X3225800Y4216400D01*
X3251200Y4165600D01*
X3200400Y4191000D01*
X3149600Y4165600D01*
Y4419600D02*
X3175000Y4470400D01*
X3149600Y4521200D01*
X3200400Y4495800D01*
X3251200Y4521200D01*
X3225800Y4470400D01*
X3251200Y4419600D01*
X3200400Y4445000D01*
X3149600Y4419600D01*
Y4673600D02*
X3175000Y4724400D01*
X3149600Y4775200D01*
X3200400Y4749800D01*
X3251200Y4775200D01*
X3225800Y4724400D01*
X3251200Y4673600D01*
X3200400Y4699000D01*
X3149600Y4673600D01*
Y4927600D02*
X3175000Y4978400D01*
X3149600Y5029200D01*
X3200400Y5003800D01*
X3251200Y5029200D01*
X3225800Y4978400D01*
X3251200Y4927600D01*
X3200400Y4953000D01*
X3149600Y4927600D01*
X584200Y1422400D02*
X609600Y1473200D01*
X584200Y1524000D01*
X635000Y1498600D01*
X685800Y1524000D01*
X660400Y1473200D01*
X685800Y1422400D01*
X635000Y1447800D01*
X584200Y1422400D01*
Y1676400D02*
X609600Y1727200D01*
X584200Y1778000D01*
X635000Y1752600D01*
X685800Y1778000D01*
X660400Y1727200D01*
X685800Y1676400D01*
X635000Y1701800D01*
X584200Y1676400D01*
Y1930400D02*
X609600Y1981200D01*
X584200Y2032000D01*
X635000Y2006600D01*
X685800Y2032000D01*
X660400Y1981200D01*
X685800Y1930400D01*
X635000Y1955800D01*
X584200Y1930400D01*
Y2184400D02*
X609600Y2235200D01*
X584200Y2286000D01*
X635000Y2260600D01*
X685800Y2286000D01*
X660400Y2235200D01*
X685800Y2184400D01*
X635000Y2209800D01*
X584200Y2184400D01*
Y2438400D02*
X609600Y2489200D01*
X584200Y2540000D01*
X635000Y2514600D01*
X685800Y2540000D01*
X660400Y2489200D01*
X685800Y2438400D01*
X635000Y2463800D01*
X584200Y2438400D01*
Y2692400D02*
X609600Y2743200D01*
X584200Y2794000D01*
X635000Y2768600D01*
X685800Y2794000D01*
X660400Y2743200D01*
X685800Y2692400D01*
X635000Y2717800D01*
X584200Y2692400D01*
Y2946400D02*
X609600Y2997200D01*
X584200Y3048000D01*
X635000Y3022600D01*
X685800Y3048000D01*
X660400Y2997200D01*
X685800Y2946400D01*
X635000Y2971800D01*
X584200Y2946400D01*
Y3200400D02*
X609600Y3251200D01*
X584200Y3302000D01*
X635000Y3276600D01*
X685800Y3302000D01*
X660400Y3251200D01*
X685800Y3200400D01*
X635000Y3225800D01*
X584200Y3200400D01*
Y3454400D02*
X609600Y3505200D01*
X584200Y3556000D01*
X635000Y3530600D01*
X685800Y3556000D01*
X660400Y3505200D01*
X685800Y3454400D01*
X635000Y3479800D01*
X584200Y3454400D01*
Y3708400D02*
X609600Y3759200D01*
X584200Y3810000D01*
X635000Y3784600D01*
X685800Y3810000D01*
X660400Y3759200D01*
X685800Y3708400D01*
X635000Y3733800D01*
X584200Y3708400D01*
Y3962400D02*
X609600Y4013200D01*
X584200Y4064000D01*
X635000Y4038600D01*
X685800Y4064000D01*
X660400Y4013200D01*
X685800Y3962400D01*
X635000Y3987800D01*
X584200Y3962400D01*
Y4216400D02*
X609600Y4267200D01*
X584200Y4318000D01*
X635000Y4292600D01*
X685800Y4318000D01*
X660400Y4267200D01*
X685800Y4216400D01*
X635000Y4241800D01*
X584200Y4216400D01*
Y4470400D02*
X609600Y4521200D01*
X584200Y4572000D01*
X635000Y4546600D01*
X685800Y4572000D01*
X660400Y4521200D01*
X685800Y4470400D01*
X635000Y4495800D01*
X584200Y4470400D01*
Y4724400D02*
X609600Y4775200D01*
X584200Y4826000D01*
X635000Y4800600D01*
X685800Y4826000D01*
X660400Y4775200D01*
X685800Y4724400D01*
X635000Y4749800D01*
X584200Y4724400D01*
Y4978400D02*
X609600Y5029200D01*
X584200Y5080000D01*
X635000Y5054600D01*
X685800Y5080000D01*
X660400Y5029200D01*
X685800Y4978400D01*
X635000Y5003800D01*
X584200Y4978400D01*
X4635500Y5122900D02*
X4660900Y5148300D01*
X4686300D01*
X4660900Y5173700D01*
X4686300Y5199100D01*
X4660900D01*
X4635500Y5224500D01*
X4610100Y5199100D01*
X4584700D01*
X4610100Y5173700D01*
X4584700Y5148300D01*
X4610100D01*
X4635500Y5122900D01*
Y5722900D02*
X4584700Y5824500D01*
X4686300D01*
X4635500Y5722900D01*
X4165500Y5422900D02*
X4114700Y5524500D01*
X4216300D01*
X4165500Y5422900D01*
X5295900Y2997200D02*
X5321300Y3048000D01*
X5295900Y3098800D01*
X5346700Y3073400D01*
X5397500Y3098800D01*
X5372100Y3048000D01*
X5397500Y2997200D01*
X5346700Y3022600D01*
X5295900Y2997200D01*
X5041900D02*
X5067300Y3048000D01*
X5041900Y3098800D01*
X5092700Y3073400D01*
X5143500Y3098800D01*
X5118100Y3048000D01*
X5143500Y2997200D01*
X5092700Y3022600D01*
X5041900Y2997200D01*
X4787900D02*
X4813300Y3048000D01*
X4787900Y3098800D01*
X4838700Y3073400D01*
X4889500Y3098800D01*
X4864100Y3048000D01*
X4889500Y2997200D01*
X4838700Y3022600D01*
X4787900Y2997200D01*
X4533900D02*
X4559300Y3048000D01*
X4533900Y3098800D01*
X4584700Y3073400D01*
X4635500Y3098800D01*
X4610100Y3048000D01*
X4635500Y2997200D01*
X4584700Y3022600D01*
X4533900Y2997200D01*
X5702300Y4305300D02*
X5727700Y4356100D01*
X5702300Y4406900D01*
X5753100Y4381500D01*
X5803900Y4406900D01*
X5778500Y4356100D01*
X5803900Y4305300D01*
X5753100Y4330700D01*
X5702300Y4305300D01*
Y4559300D02*
X5727700Y4610100D01*
X5702300Y4660900D01*
X5753100Y4635500D01*
X5803900Y4660900D01*
X5778500Y4610100D01*
X5803900Y4559300D01*
X5753100Y4584700D01*
X5702300Y4559300D01*
Y4813300D02*
X5727700Y4864100D01*
X5702300Y4914900D01*
X5753100Y4889500D01*
X5803900Y4914900D01*
X5778500Y4864100D01*
X5803900Y4813300D01*
X5753100Y4838700D01*
X5702300Y4813300D01*
Y5067300D02*
X5727700Y5118100D01*
X5702300Y5168900D01*
X5753100Y5143500D01*
X5803900Y5168900D01*
X5778500Y5118100D01*
X5803900Y5067300D01*
X5753100Y5092700D01*
X5702300Y5067300D01*
Y5321300D02*
X5727700Y5372100D01*
X5702300Y5422900D01*
X5753100Y5397500D01*
X5803900Y5422900D01*
X5778500Y5372100D01*
X5803900Y5321300D01*
X5753100Y5346700D01*
X5702300Y5321300D01*
Y5575300D02*
X5727700Y5626100D01*
X5702300Y5676900D01*
X5753100Y5651500D01*
X5803900Y5676900D01*
X5778500Y5626100D01*
X5803900Y5575300D01*
X5753100Y5600700D01*
X5702300Y5575300D01*
X7010400Y2641600D02*
X7035800D01*
X7061200Y2667000D01*
X7086600Y2641600D01*
X7112000D01*
Y2667000D01*
X7086600Y2692400D01*
X7112000Y2717800D01*
Y2743200D01*
X7086600D01*
X7061200Y2717800D01*
X7035800Y2743200D01*
X7010400D01*
Y2717800D01*
X7035800Y2692400D01*
X7010400Y2667000D01*
Y2641600D01*
X7556500Y2667000D02*
X7581900D01*
X7607300Y2692400D01*
X7632700Y2667000D01*
X7658100D01*
Y2692400D01*
X7632700Y2717800D01*
X7658100Y2743200D01*
Y2768600D01*
X7632700D01*
X7607300Y2743200D01*
X7581900Y2768600D01*
X7556500D01*
Y2743200D01*
X7581900Y2717800D01*
X7556500Y2692400D01*
Y2667000D01*
X11150600Y889000D02*
X11176000D01*
X11201400Y914400D01*
X11226800Y889000D01*
X11252200D01*
Y914400D01*
X11226800Y939800D01*
X11252200Y965200D01*
Y990600D01*
X11226800D01*
X11201400Y965200D01*
X11176000Y990600D01*
X11150600D01*
Y965200D01*
X11176000Y939800D01*
X11150600Y914400D01*
Y889000D01*
Y1016000D02*
X11176000D01*
X11201400Y1041400D01*
X11226800Y1016000D01*
X11252200D01*
Y1041400D01*
X11226800Y1066800D01*
X11252200Y1092200D01*
Y1117600D01*
X11226800D01*
X11201400Y1092200D01*
X11176000Y1117600D01*
X11150600D01*
Y1092200D01*
X11176000Y1066800D01*
X11150600Y1041400D01*
Y1016000D01*
X11049000Y889000D02*
X11074400D01*
X11099800Y914400D01*
X11125200Y889000D01*
X11150600D01*
Y914400D01*
X11125200Y939800D01*
X11150600Y965200D01*
Y990600D01*
X11125200D01*
X11099800Y965200D01*
X11074400Y990600D01*
X11049000D01*
Y965200D01*
X11074400Y939800D01*
X11049000Y914400D01*
Y889000D01*
Y1016000D02*
X11074400D01*
X11099800Y1041400D01*
X11125200Y1016000D01*
X11150600D01*
Y1041400D01*
X11125200Y1066800D01*
X11150600Y1092200D01*
Y1117600D01*
X11125200D01*
X11099800Y1092200D01*
X11074400Y1117600D01*
X11049000D01*
Y1092200D01*
X11074400Y1066800D01*
X11049000Y1041400D01*
Y1016000D01*
X9029700D02*
X9055100D01*
X9080500Y1041400D01*
X9105900Y1016000D01*
X9131300D01*
Y1041400D01*
X9105900Y1066800D01*
X9131300Y1092200D01*
Y1117600D01*
X9105900D01*
X9080500Y1092200D01*
X9055100Y1117600D01*
X9029700D01*
Y1092200D01*
X9055100Y1066800D01*
X9029700Y1041400D01*
Y1016000D01*
Y1092200D02*
X9055100D01*
X9080500Y1117600D01*
X9105900Y1092200D01*
X9131300D01*
Y1117600D01*
X9105900Y1143000D01*
X9131300Y1168400D01*
Y1193800D01*
X9105900D01*
X9080500Y1168400D01*
X9055100Y1193800D01*
X9029700D01*
Y1168400D01*
X9055100Y1143000D01*
X9029700Y1117600D01*
Y1092200D01*
X9105900Y1054100D02*
X9131300D01*
X9156700Y1079500D01*
X9182100Y1054100D01*
X9207500D01*
Y1079500D01*
X9182100Y1104900D01*
X9207500Y1130300D01*
Y1155700D01*
X9182100D01*
X9156700Y1130300D01*
X9131300Y1155700D01*
X9105900D01*
Y1130300D01*
X9131300Y1104900D01*
X9105900Y1079500D01*
Y1054100D01*
Y977900D02*
X9131300D01*
X9156700Y1003300D01*
X9182100Y977900D01*
X9207500D01*
Y1003300D01*
X9182100Y1028700D01*
X9207500Y1054100D01*
Y1079500D01*
X9182100D01*
X9156700Y1054100D01*
X9131300Y1079500D01*
X9105900D01*
Y1054100D01*
X9131300Y1028700D01*
X9105900Y1003300D01*
Y977900D01*
X7835900Y3390900D02*
X7861300D01*
X7886700Y3416300D01*
X7912100Y3390900D01*
X7937500D01*
Y3416300D01*
X7912100Y3441700D01*
X7937500Y3467100D01*
Y3492500D01*
X7912100D01*
X7886700Y3467100D01*
X7861300Y3492500D01*
X7835900D01*
Y3467100D01*
X7861300Y3441700D01*
X7835900Y3416300D01*
Y3390900D01*
X2781300Y1371600D02*
X2806700D01*
X2832100Y1397000D01*
X2857500Y1371600D01*
X2882900D01*
Y1397000D01*
X2857500Y1422400D01*
X2882900Y1447800D01*
Y1473200D01*
X2857500D01*
X2832100Y1447800D01*
X2806700Y1473200D01*
X2781300D01*
Y1447800D01*
X2806700Y1422400D01*
X2781300Y1397000D01*
Y1371600D01*
Y812800D02*
X2806700D01*
X2832100Y838200D01*
X2857500Y812800D01*
X2882900D01*
Y838200D01*
X2857500Y863600D01*
X2882900Y889000D01*
Y914400D01*
X2857500D01*
X2832100Y889000D01*
X2806700Y914400D01*
X2781300D01*
Y889000D01*
X2806700Y863600D01*
X2781300Y838200D01*
Y812800D01*
D70*
X9537700Y533400D02*
G03*
X9537700Y533400I-50800J0D01*
G01*
X9664700D02*
G03*
X9664700Y533400I-50800J0D01*
G01*
X10210800Y520700D02*
G03*
X10210800Y520700I-50800J0D01*
G01*
X10083800D02*
G03*
X10083800Y520700I-50800J0D01*
G01*
%TF.MD5,3a10fea57156663e21e088b2e014bf51*%
M02*
