%TF.GenerationSoftware,Altium Limited,Altium Designer,23.7.1 (13)*%
G04 Layer_Color=16711935*
%FSLAX45Y45*%
%MOMM*%
%TF.SameCoordinates,4FC3C7EC-8D88-42E2-AD13-77C46488DAC4*%
%TF.FilePolarity,Positive*%
%TF.FileFunction,Other,Top_3D_Body*%
%TF.Part,Single*%
G01*
G75*
%TA.AperFunction,NonConductor*%
%ADD29C,0.20000*%
%ADD31C,0.12700*%
%ADD35C,0.07620*%
%ADD50C,0.10000*%
%ADD52C,0.02540*%
D29*
X9368400Y533400D02*
G03*
X9368400Y533400I-10000J0D01*
G01*
X10298500Y520700D02*
G03*
X10298500Y520700I-10000J0D01*
G01*
X3210400Y1230400D02*
G03*
X3210400Y1230400I-10000J0D01*
G01*
X645000Y1281200D02*
G03*
X645000Y1281200I-10000J0D01*
G01*
X4402700Y3048000D02*
G03*
X4402700Y3048000I-10000J0D01*
G01*
X5763100Y5818100D02*
G03*
X5763100Y5818100I-10000J0D01*
G01*
X6636200Y1378400D02*
Y2228400D01*
X7486200D01*
Y1378400D02*
Y2228400D01*
X6636200Y1378400D02*
X7486200D01*
X10065200D02*
Y2228400D01*
X10915200D01*
Y1378400D02*
Y2228400D01*
X10065200Y1378400D02*
X10915200D01*
D31*
X9423400Y426400D02*
Y640400D01*
X9677400D01*
Y426400D02*
Y640400D01*
X9423400Y426400D02*
X9677400D01*
X10223500Y413700D02*
Y627700D01*
X9969500Y413700D02*
X10223500D01*
X9969500D02*
Y627700D01*
X10223500D01*
D35*
X7928999Y3249930D02*
X7844360Y3165291D01*
Y3249930D02*
X7928999Y3165291D01*
X7886679Y3249930D02*
Y3165291D01*
X7844360Y3207610D02*
X7928999D01*
X7565001Y2947670D02*
X7649640Y3032309D01*
Y2947670D02*
X7565001Y3032309D01*
X7607321Y2947670D02*
Y3032309D01*
X7649640Y2989990D02*
X7565001D01*
X6785999Y3262630D02*
X6701360Y3177991D01*
Y3262630D02*
X6785999Y3177991D01*
X6743679Y3262630D02*
Y3177991D01*
X6701360Y3220310D02*
X6785999D01*
X7006201Y2960370D02*
X7090840Y3045009D01*
Y2960370D02*
X7006201Y3045009D01*
X7048521Y2960370D02*
Y3045009D01*
X7090840Y3002690D02*
X7006201D01*
D50*
X7765700Y2174600D02*
X9785700D01*
Y1834600D02*
Y2334600D01*
X7765700Y1834600D02*
Y2334600D01*
X9785700D01*
X7765700Y1834600D02*
X9785700D01*
X3073400Y1295400D02*
X3327400D01*
X3073400D02*
Y5105400D01*
X3327400D01*
Y1295400D02*
Y5105400D01*
X3073400Y1295400D02*
X3327400D01*
X3073400D02*
Y5105400D01*
X3327400D01*
X508000Y1346200D02*
X762000D01*
X508000D02*
Y5156200D01*
X762000D01*
Y1346200D02*
Y5156200D01*
X508000Y1346200D02*
X762000D01*
X508000D02*
Y5156200D01*
X762000D01*
X4185500Y5103730D02*
X5085474D01*
Y6543727D01*
X4185500D02*
X5085474D01*
X4185500Y5103730D02*
Y6543727D01*
X5473700Y2921000D02*
Y3175000D01*
X4457700D02*
X5473700D01*
X4457700Y2921000D02*
Y3175000D01*
Y2921000D02*
X5473700D01*
Y3175000D01*
X4457700D02*
X5473700D01*
X4457700Y2921000D02*
Y3175000D01*
X5626100Y4229100D02*
X5880100D01*
Y5753100D01*
X5626100D02*
X5880100D01*
X5626100Y4229100D02*
Y5753100D01*
Y4229100D02*
X5880100D01*
Y5753100D01*
X5626100D02*
X5880100D01*
X8867200Y412800D02*
Y577800D01*
X9192200Y412800D02*
Y577800D01*
X8867200D02*
X9192200D01*
X8867200Y412800D02*
X9192200D01*
X7267000D02*
Y577800D01*
X7592000Y412800D02*
Y577800D01*
X7267000D02*
X7592000D01*
X7267000Y412800D02*
X7592000D01*
D52*
X7827010Y3243580D02*
X7946390D01*
Y3291840D01*
X7827010D02*
X7946390D01*
X7827010Y3243580D02*
Y3291840D01*
Y2954020D02*
X7946390D01*
X7827010Y2905760D02*
Y2954020D01*
Y2905760D02*
X7946390D01*
Y2954020D01*
X7935595Y3243580D02*
X7984490Y3194685D01*
X7788910D02*
X7837805Y3243580D01*
X7788910Y2954020D02*
Y3243580D01*
Y2954020D02*
X7984490D01*
Y3243580D01*
X7788910D02*
X7984490D01*
X7547610Y2954020D02*
X7666990D01*
X7547610Y2905760D02*
Y2954020D01*
Y2905760D02*
X7666990D01*
Y2954020D01*
X7547610Y3243580D02*
X7666990D01*
Y3291840D01*
X7547610D02*
X7666990D01*
X7547610Y3243580D02*
Y3291840D01*
X7509510Y3002915D02*
X7558405Y2954020D01*
X7656195D02*
X7705090Y3002915D01*
Y2954020D02*
Y3243580D01*
X7509510D02*
X7705090D01*
X7509510Y2954020D02*
Y3243580D01*
Y2954020D02*
X7705090D01*
X6684010Y3256280D02*
X6803390D01*
Y3304540D01*
X6684010D02*
X6803390D01*
X6684010Y3256280D02*
Y3304540D01*
Y2966720D02*
X6803390D01*
X6684010Y2918460D02*
Y2966720D01*
Y2918460D02*
X6803390D01*
Y2966720D01*
X6792595Y3256280D02*
X6841490Y3207385D01*
X6645910D02*
X6694805Y3256280D01*
X6645910Y2966720D02*
Y3256280D01*
Y2966720D02*
X6841490D01*
Y3256280D01*
X6645910D02*
X6841490D01*
X6950710Y2966720D02*
X7146290D01*
X6950710D02*
Y3256280D01*
X7146290D01*
Y2966720D02*
Y3256280D01*
X7097395Y2966720D02*
X7146290Y3015615D01*
X6950710D02*
X6999605Y2966720D01*
X6988810Y3256280D02*
Y3304540D01*
X7108190D01*
Y3256280D02*
Y3304540D01*
X6988810Y3256280D02*
X7108190D01*
Y2918460D02*
Y2966720D01*
X6988810Y2918460D02*
X7108190D01*
X6988810D02*
Y2966720D01*
X7108190D01*
%TF.MD5,6e0d5d238aa483745314ce832838e3ac*%
M02*
